<svg xmlns="http://www.w3.org/2000/svg" viewBox="0 0 531.94 311.31"><path d="M293.1 150.06h11.1v-41.53h-11.1v41.53zm-5.81-28.12c0-7.95-5.7-13.41-14.83-13.41h-24.03v41.53h11.1v-14.54h4.03l12.64 14.54h13.77l-13.77-15.01c6.94-1.48 11.1-6.59 11.1-13.11zm-16.14 4.39h-11.63v-8.37h11.63c3.32 0 4.98 1.96 4.98 4.21s-1.66 4.15-4.98 4.15zm50.01 3.32v-.77c0-6.17 3.44-10.62 10.56-10.62h12.34v-9.73h-13.29c-13.71 0-20.71 8.78-20.71 20.35v.83c0 12.87 7.95 20.35 20.17 20.35h3.8l4.45-9.43h-6.53c-6.65 0-10.8-3.74-10.8-10.98zm-211.99-21.12-18.33 41.53h12.22l3.5-8.43h19.22l3.56 8.43h12.52l-18.33-41.53h-14.36zm1.18 23.97 5.81-13.88 5.81 13.88h-11.63zm60.52 2.2-9.49-26.17h-17.45v41.53h10.92v-29.9l10.98 29.9h9.85l10.97-29.9v29.9h10.92v-41.53H180.3l-9.43 26.17zm35.18 15.36h35.13v-9.43h-24.03v-6.65h23.43v-9.43h-23.43v-6.59h24.03v-9.43h-35.13v41.53zm151.48-41.53-18.33 41.53h12.22l3.5-8.43h19.22l3.56 8.43h12.52l-18.33-41.53h-14.36zm1.19 23.97 5.81-13.88 5.81 13.88h-11.63zm64.49 1.37-16.91-25.34h-14v41.53h11.04v-26.28l17.44 26.28h13.41v-41.53h-10.98v25.34zm-36.52 44.12h-10.2c-2.2 0-3.8-1.31-3.8-3.32s1.6-3.26 3.8-3.26h18.45l4.33-9.43h-22.84c-9.43 0-14.83 5.58-14.83 13.05s5.22 12.4 13.35 12.4h10.21c2.25 0 3.8 1.31 3.8 3.32s-1.54 3.32-3.8 3.32h-22.25v9.43h22.31c9.32 0 14.83-5.46 14.83-13.47 0-7.59-4.86-12.04-13.35-12.04zm-70.7-2.61c0-7.95-5.7-13.41-14.83-13.41h-24.03v41.53h11.09v-14.54h4.03l12.64 14.54h13.76l-13.76-15.01c6.94-1.48 11.09-6.59 11.09-13.11zm-16.13 4.39h-11.63v-8.37h11.63c3.32 0 4.98 1.96 4.98 4.21s-1.66 4.15-4.98 4.15zm21.95 23.73h35.12v-9.43H332.9v-6.65h23.44v-9.43H332.9v-6.59h24.03v-9.43h-35.12v41.53zm-64.26-41.53h-24.33v41.53h11.09v-13.53h12.87c9.37 0 15.19-5.93 15.19-14s-5.7-14-14.83-14zm-1.3 18.57h-11.93v-9.14h11.93c3.32 0 4.98 2.08 4.98 4.63s-1.66 4.51-4.98 4.51zm171.23-2.55h-10.2c-2.19 0-3.8-1.31-3.8-3.32s1.6-3.26 3.8-3.26h18.45l4.33-9.43h-22.84c-9.43 0-14.83 5.58-14.83 13.05s5.22 12.4 13.35 12.4h10.2c2.25 0 3.8 1.31 3.8 3.32s-1.54 3.32-3.8 3.32h-22.25v9.43H426c9.31 0 14.83-5.46 14.83-13.47 0-7.59-4.86-12.04-13.35-12.04zM143.93 203.5h35.13v-9.43h-24.03v-6.65h23.44v-9.43h-23.44v-6.59h24.03v-9.43h-35.13v41.53zm87.28-41.53h-14.12l-10.8 12.52-10.8-12.52h-14.47l18.27 20.53-18.63 21h14.12l11.33-13.17 11.34 13.17h14.47l-18.75-21.24 18.04-20.29z" style="fill:#fff;stroke-width:0"/></svg>