<svg xmlns="http://www.w3.org/2000/svg" viewBox="0 0 551.24 311.33"><path d="M432.76 168.77c-8.22 0-14.91-6.69-14.91-14.91s6.69-14.76 14.91-14.76 14.75 6.62 14.75 14.76-6.62 14.91-14.75 14.91m0-42.03c-14.96 0-27.13 12.17-27.13 27.13S417.8 181 432.76 181s26.98-12.17 26.98-27.13-12.1-27.13-26.98-27.13m-108.01-.6c-5.67 0-11.76 1.14-16.72 3.14-3.91-2.23-7.73-3.14-13.15-3.14-7.58 0-14.37 1.11-21.36 3.48l-1.36.45-.19.06v49.8h13.97v-40.51c2.49-.81 4.55-1.13 7.27-1.13 6.46 0 8.32 1.97 8.32 8.78v32.86h14.12v-33.76c0-3.03-.16-4.91-.55-6.61 2.78-.91 4.73-1.27 6.92-1.27 6.17 0 8.93 2.71 8.93 8.78v32.86h13.97v-33.91c0-6.84-1.16-10.78-4.14-14.06-3.44-3.75-9.14-5.82-16.04-5.82M383 168.76c-8.77 0-13.8-5.46-13.8-14.98s5.08-15.36 13.94-15.36c1.88 0 3.44.2 4.88.64.03 0 2.75.8 5.12 2.65l.25.19.16-.27 5.69-9.75.12-.2-.18-.15c-3.21-2.67-7-3.79-8.09-4.07-3.46-1.05-8.61-1.21-8.66-1.22-16.31 0-27.25 11.3-27.25 28.11s10.39 26.61 26.48 26.61c.1 0 10.85.4 18.02-6.24l.18-.17-.15-.2-6.68-8.58-.15-.2-.21.13c-3.56 2.27-5.99 3.03-9.64 3.03m-190.22-42.14c-19.33 0-28.33 8.48-28.33 26.67v26.67h14.27V153.1c0-8.86 4.92-14.36 12.85-14.36 3.17 0 5.6.54 7.63 1.05l.26.07.07-.26 3.17-11.92.08-.3-.3-.04c-5.27-.75-9.65-.76-9.69-.76zm52.95 26.67c0-10.19-4.05-15.36-12.04-15.36s-13.4 5.91-13.4 15.06c0 10.83 5.2 15.66 16.87 15.66h8.57v-15.36zm13.43-1.5v28.18h-18.68c-11.96 0-18.08-.74-25.04-5.33-5.82-3.98-9.02-11.51-9.02-21.2 0-13.43 8.76-26.98 28.33-26.98 15.74 0 24.41 8.99 24.41 25.32m-120.74 1.51c0-10.48-3.78-15.36-11.89-15.36s-13.4 5.91-13.4 15.06c0 10.83 5.2 15.66 16.87 15.66h8.42v-15.36zm13.88-1.51v28.18H133.8c-11.96 0-18.08-.74-25.04-5.32-5.82-3.98-9.02-11.51-9.02-21.2 0-13.43 8.76-26.98 28.33-26.98 15.87 0 24.26 8.75 24.26 25.32" style="fill:#fff;stroke-width:0"/></svg>