<svg xmlns="http://www.w3.org/2000/svg" viewBox="0 0 444.81 311.2"><path d="M132.16 171.25v-29.47h-12.83l-4.77-7.46h38.59l4.77 7.46h-17.61v29.47h-8.15zm78.39-.05h9.3l21.07-36.88h-9.3l-21.07 36.88zm45.69-10.05 5.74 10.05h9.31l-21.07-36.88h-9.3l11.07 19.38h-22.11l4.77 7.45h21.6zm17.13-26.78v36.88h8.15v-36.88l21.07 36.88h15.63v-36.88h-8.15v33.69l-19.25-33.69h-17.45zm-64.92 36.88v-36.88h-8.15v19.38h-30.16v-19.38h-8.15v36.88h8.15v-17.5l4.77 7.45h25.39v10.05h8.15zm-82.6-83.64v36.88h15.63l21.07-36.88v36.88h8.15V87.61h-17.45L134 121.31v-33.7h-17.45l-21.07 36.88h9.3l21.07-36.88zm119.27 37.06h-8.15V87.44h36.65c7.45 0 13.49 6.04 13.49 13.49 0 5.29-3.05 9.87-7.49 12.08l6.66 11.66h-9.3l-5.86-10.25h-25.99v10.25zm0-17.52h28.5c3.43 0 6.22-2.79 6.22-6.22s-2.79-6.22-6.22-6.22h-28.5v12.44zm-70.35-1.1c0-10.66 9.31-19.3 19.96-19.3h18.9c10.66 0 19.3 8.64 19.3 19.3s-8.64 19.3-19.3 19.3h-18.9c-10.66 0-19.96-8.64-19.96-19.3zm7.27 0c0 6.52 5.81 12.03 12.7 12.03h18.9c6.63 0 12.03-5.4 12.03-12.03s-5.4-12.03-12.03-12.03h-18.9c-6.88 0-12.7 5.51-12.7 12.03zm147.69 18.4 4.77-7.46h-30.44l-4.77 7.46v-14.74h30.27v-7.38h-30.27v-7.29h30.42l4.77-7.46h-30.42l-4.77 7.46v-7.46h-8.15v36.88h38.59zm-20.06 93.47h8.15v-36.88h-8.15v36.88zm37.62-7.37h-29.47v7.37h34.48l-5.01-7.37zm-109.66-3.6c0 2.06-1.68 3.74-3.74 3.74H206.6c-2.06 0-3.74-1.68-3.74-3.74v-25.87h-7.27v25.87c0 6.08 4.93 11.01 11.01 11.01h27.29c6.08 0 11.01-4.93 11.01-11.01v-25.87h-7.27v25.87zm30.35-25.87-21.07 36.88h9.3l21.07-36.88h-9.3zm9.31 0 11.07 19.38h-22.11l4.77 7.45h21.6l5.74 10.05h9.3l-21.07-36.88h-9.3zM185.2 213.7l6.42 11.25h-9.31l-4.07-7.13c-1.93.65-3.99 1-6.13 1h-16.09c-10.66 0-19.96-8.64-19.96-19.3s9.31-19.3 19.96-19.3h16.09c10.66 0 19.3 8.64 19.3 19.3 0 5.61-2.4 10.66-6.22 14.18zm-1.05-14.18c0-6.63-5.4-12.03-12.03-12.03h-16.09c-6.88 0-12.7 5.51-12.7 12.03s5.81 12.03 12.7 12.03h16.09c6.63 0 12.03-5.4 12.03-12.03zm-48.51-18.47h-30.42l-4.77 7.46h30.42l4.77-7.46zm-4.78 22.13v-7.38h-30.4v-14.76h-8.15v36.88h8.15v-14.74h30.4zm-30.41 14.74h30.44l4.77-7.45h-30.44l-4.77 7.46z" style="fill:#fff;stroke-width:0"/></svg>