<svg xmlns="http://www.w3.org/2000/svg" viewBox="0 0 376.26 311.1"><path d="M114.36 85.68c1.31-.43 3.14-4.29 4.91-4.06.76.09 3.77 6.16 3.77 6.16 24.45 1.23 54.54 30.78 58.43 33.78 1.87 1.44 9.76 9.62 24.21 15.96 5.94 2.6 11.89 3.7 17.42 3.31 7.39-.52 15.64-7.01 20.71-15.82 6.37-11.05 9.08-30.29 27.45-41.19 2.55-1.52 8.4-4.93 11.76-.64 2.71 3.47.49 9.24-2.35 11.99-1.77 1.72-5.02 3.48-11.17 6.4-2.07.98-5.48 3.54-6.81 4.55-6.59 5.05-11.37 16.45-16.69 28.93 0 0-2.25 6.14-12.25 12.75-1.67 1.1-.16 2.02 1.66 4.38 2.37 3.07 7.07 15.78 6.47 35.07-.11 3.41 1.28 4.9 2.83 7.69 2.71 4.84 8.05 3.79 7.91 10.11-.17 8.53 6.1 10.35 4.1 14.28-1.47 2.87-.97 5.64-.96 8.43 0 1.43.77 3.5-2.17 3.33-11.96-.7-11.16-16.78-10.94-22.3.2-.72-.36-2.04-.45-2.1-.57-.43-8.06-6.22-8.55-6.72-9.06-9.21-15.03-17.48-18.36-25.99-2.21-5.66-4.48-11.27-8.37-14.84-4.33-4-9.7-6.21-14.38-6.24-33.3-.18-40.15-14.79-49.22-22.08-.26-.2-1.1-.65-1.59-.69-.49.04-.91.65-1.22.91-3.49 3.65-7.03 4.87-11.77 4.87-11.25 0-23.37-9.88-25.48-7.67-1.63 1.71-.24 5.23-3.21 5.83-4.34.87-8.81-3.41-8.45-7.02.65-6.49 7.28-8.38 13.09-9.03 4.81-.54 8.74.78 9.64.9 2.69.36 3.16-2.89 2.71-5-.48-2.26-2.62-2.73-4.83-3.38-2.69-.79-5.68 1.43-7.7.72-2.36-.82-2.52-2.04-4.51-3.77-2.46-2.17-5.35-2.74-5.35-5.82 0-2.8 3.43-3.04 4.43-5.66.49-1.28.34-2.64.77-3.42 1.17-2.12 3.35-2.02 5.11-3.75 2.39-2.35 3.56-6.92 4.82-7.12 1.25-.19 3.32 4.38 4.55 3.97zm148.59 136.35c-1.97 0-3.62 1.67-3.62 3.68s1.65 3.68 3.68 3.68 3.64-1.65 3.64-3.68-1.62-3.68-3.7-3.68zm.06 6.84c-1.7 0-3.08-1.41-3.08-3.14s1.38-3.15 3.03-3.15h.05c1.69 0 3.06 1.4 3.06 3.15s-1.36 3.14-3.06 3.14zm.42-2.83c.5-.14.85-.63.85-1.18 0-.82-.6-1.26-1.74-1.26h-.86v4.25h.82v-1.68l1.25 1.68h.99l-1.37-1.78.06-.02zm-.8-.57h-.13v-1.15h.15c.57 0 .86.19.86.55 0 .4-.3.61-.87.61z" style="fill:#fff;stroke-width:0"/></svg>