<svg id="LOGOS" xmlns="http://www.w3.org/2000/svg" viewBox="0 0 365.48 311.09"><defs><style>.cls-1{fill:#fff;stroke-width:0}</style></defs><path class="cls-1" d="M91.9 78.12h-.18v102.84l90.69 52.14.04.03h.13l90.53-52.11.1-.05V78.19l-181.3-.06zm176.26 100.01-85.66 49.23-85.75-49.26v-34.59h171.41v34.62zm0-39.48H96.75V82.97h171.42v55.68z"/><path class="cls-1" d="M138.57 132.1V98.49h17.79v-8.95h-48.21v8.95h17.79v33.61h12.63zm116.12-.8c-9.69 1.87-22.14 2.42-31.15-1.14-7.68-2.9-12.41-9.79-13.4-16.55-1.02-8.3 2.6-15.56 10.33-20.44 9-5.55 23.29-5.36 33.11-1.51v9.25c-7.43-2.93-18.6-5.47-25.73-.81-5.12 3.38-6.7 8.73-5.42 14.08 1.02 4.22 5.24 8.04 9.94 9.43 3.33.91 7.42 1.21 11.13.8v-6.88l-4.9.02v-8.28h16.07v22.01zm-86.16-7.57-4.25 8.35h-12.87l20.91-42.54h14.44l21.3 42.55h-12.91l-4.47-8.36h-22.14zm11.14-23.63-7.65 14.97h14.83l-7.17-14.97zm16.8 110.68v-60.65c0-.17-.14-.32-.32-.32h-6.19c-.17 0-.32.15-.32.32v56.95l-7.16 3.92-7.19-3.92v-56.95c0-.17-.15-.32-.32-.32h-6.19c-.08 0-.17.03-.22.09-.06.06-.09.15-.09.23v60.65c0 .11.06.22.16.28l13.68 7.85c.1.06.22.06.32 0l13.67-7.85c.1-.06.16-.16.16-.28m-38-5.56c.1.06.21.06.29 0 .1-.06.16-.16.16-.28v-6.57a.32.32 0 0 0-.16-.28l-13.11-7.15v-15.87l11.76 3c.1 0 .23-.14.23-.32v-6.48c0-.12-.15-.27-.3-.31l-11.69-2.59v-12.6h12.97c.16 0 .3-.14.3-.32v-5.32c0-.18-.14-.32-.3-.32h-19.26c-.17 0-.3.14-.3.32v43.71c0 .12.06.23.16.29l19.25 11.09zm68.77-12.13v-5.93c0-.11-.06-.22-.16-.27a.29.29 0 0 0-.31 0l-12.86 7.02v-17.46l11.98-3.06a.31.31 0 0 0 .24-.31v-5.8c0-.1-.05-.19-.13-.25a.346.346 0 0 0-.2-.07l-11.9 2.61v-13.8h13c.17 0 .32-.15.32-.32v-5.32c0-.17-.14-.31-.32-.31h-19.22c-.18 0-.32.14-.32.31v54.03c0 .11.06.22.16.27.09.06.22.06.32 0l19.23-11.06c.1-.06.16-.17.16-.28m-104.38-8.34 5.31 3.07c.1.06.22.05.32 0 .1-.06.16-.16.16-.28v-37.41c0-.18-.15-.32-.32-.32H123c-.17 0-.32.14-.32.32v13.19l-12.8-2.82v-10.38c0-.18-.14-.32-.32-.32h-5.25c-.08 0-.17.04-.22.09-.06.06-.09.15-.09.23v23.66c0 .11.06.22.17.28l5.24 2.99c.1.06.22.06.32 0s.16-.17.16-.28v-10.85l12.8 3.27v15.27c0 .11.06.22.16.28m114.45 2.57c.09.06.22.06.32 0l5.49-3.12.04-.06v-15.15l3.21-.84 9.44 8.44c.09.13.28.17.41.08l4.8-2.79c.08-.04.13-.11.16-.21 0-.06 0-.14-.03-.2l-8.25-6.99 5.84-1.49c1.94-.5 2.24-1.4 2.22-3.38v-9.61c-.25-1.4-1.27-2.2-2.72-2.2h-20.78c-.16 0-.32.19-.32.38v36.84c0 .1.07.21.16.27m5.86-31.5h11.15c.49 0 .9.4.9.9v2.83c0 .65-.13 1-.96 1.2l-11.09 2.43v-7.36z"/></svg>