<svg id="LOGOS" xmlns="http://www.w3.org/2000/svg" viewBox="0 0 410.89 311.15"><defs><style>.cls-1{fill:#fff;stroke-width:0}</style></defs><path class="cls-1" d="M91.94 80.83v150h227.21v-150H91.94zm220.28 42.54v64.91H209.01v-64.91h103.21zm-110.14 0v64.91H98.87v-64.91h103.21zm-103.21-6.93V87.76h213.35v28.68H98.87zm0 107.46v-28.68h213.35v28.68H98.87z"/><path class="cls-1" d="M216.37 200.54h3.28v17.61h-3.28zM205.54 99.92l-5.43-6.62h-2.74v17.61h3.29V98.96l4.88 6.04 4.89-6.04v11.95h3.28V93.3h-2.73l-5.44 6.62zm-16.9 118.24h3.28v-7.64h6.13v-3.07h-6.13v-3.83h6.79v-3.08h-10.07v17.62zm75.97-7.32h7.09v-3.07h-7.09v-4.15h7.27v-3.08h-10.55v17.62h10.73v-3.08h-7.45v-4.24zm28.55-1.22c1.76-1.15 2.17-2.77 2.17-4.03 0-2.44-1.63-5.05-6.19-5.05h-5.02v17.61h3.28v-7.45h1.06c1.44 0 1.74 0 3.46 2.71l3.02 4.74h3.89l-4.56-6.99c-.39-.59-.75-1.11-1.11-1.54zm-5.76-6h1.49c2.03 0 3.07.67 3.07 1.99 0 .5 0 2.02-3.02 2.02h-1.54v-4.01zm-43.59 8.47h3.28v2.49c-.99.41-1.97.59-3.22.59-4.55 0-6.16-3.14-6.16-5.82 0-3.37 2.45-5.82 5.82-5.82 1.68 0 3.27.46 5 1.44l1.55.88v-3.82l-.61-.28c-2.33-1.04-3.83-1.41-5.76-1.41-5.35 0-9.38 3.85-9.38 8.97s4.08 9.06 9.49 9.06c1.99 0 4-.48 5.96-1.42l.59-.28v-7.64h-6.56v3.08zm4.34-112.17-5.43-6.62h-2.73v17.61h3.28V98.96l4.88 6.04 4.89-6.04v11.95h3.28V93.3h-2.73l-5.44 6.62zm-135.02-3.55h5.83v14.54h3.28V96.37h5.84V93.3h-14.95v3.07zm48.22-3.28c-5.18 0-9.24 3.96-9.24 9.01s4.06 9.01 9.24 9.01 9.29-3.96 9.29-9.01-4.08-9.01-9.29-9.01zm.05 14.83c-3.32 0-5.92-2.56-5.92-5.82s2.6-5.82 5.92-5.82 5.87 2.5 5.87 5.82-2.52 5.82-5.87 5.82zm-18.05 92.62h3.28v17.61h-3.28zM290.28 98.87l-4.71-5.57h-4.16l7.22 8.61v9h3.29v-9l7.22-8.61h-4.16l-4.7 5.57zM167.13 200.54h-3.28v17.62h10.96v-3.08h-7.68v-14.54zm-42.33 7.18h-8.3v-7.18h-3.28v17.62h3.28v-7.36h8.3v7.36h3.28v-17.62h-3.28v7.18z"/></svg>