<svg xmlns="http://www.w3.org/2000/svg" viewBox="0 0 510.29 311.28"><path d="M290.36 177.21s-1.14-1.79-2.95-4.12c-1.99-.07-4.94-.15-9.23-.25 3.39 4.4 5.55 8.13 5.55 8.13l6.64-3.76zm.86-12.38h-42.91a27.6 27.6 0 0 0-6.72 3.5h9.77v57.88c1.63.39 3.34.59 5.09.59 1.01 0 2.03-.07 3.07-.2v-58.26c6.08.09 11.06.18 15.14.26 3.73.07 6.71.14 9.07.21 6.06.16 8.07.27 8.35.29l1.15.07-2.02-4.33zm-22.2 63.51c-.85.43-1.74.76-2.64 1.06-.88.3-1.78.56-2.69.79-1.46.36-2.96.61-4.48.74a29.066 29.066 0 0 1-8-.41c-1.37-.26-2.72-.6-4.03-1.04-12.89-4.35-22.36-17.33-22.9-32.84l-.03-1.16v-.37c0-1.1.05-2.2.15-3.29.01-.15.03-.3.04-.45.04-.39.08-.77.13-1.16.05-.41.11-.81.18-1.21.03-.17.05-.34.08-.5.07-.38.14-.76.22-1.14v-.02c1.13-5.53 3.43-10.57 6.58-14.8 4.24-5.69 10.03-9.91 16.67-11.86 2.22-.65 4.54-1.06 6.93-1.17h.05c.41-.02.82-.03 1.24-.04h.45c.16-.01.33-.01.49-.01 2.94 0 5.65.59 7.73 1.23h8.14c-2.88-1.46-8.95-3.96-16.72-3.96-1.41 0-2.86.08-4.31.24-7.25.8-14.28 3.59-20.01 7.92h-14.51l-2.57 4.41 1.76-.03c.55-.03 2.04-.09 4.11-.18 1.86-.08 4.19-.18 6.75-.28-4.07 4.13-7.14 8.99-8.97 14.22a36.637 36.637 0 0 0-2.01 14.01c.37 9.82 4.49 18.97 11.72 25.88 7.54 7.22 17.59 11.19 28.29 11.19 14.49 0 27.21-7.33 34.33-18.3l-6.5-2.5c-3.57 6.73-9.97 12.23-15.66 15.07zM163.5 116.8c-.43 0-.88-.03-1.35-.08-2.37-.26-4.36-.67-5.6-2.2-1.28-1.59-1.79-3.81-1.37-5.95.63-3.17 3.38-4.19 5.7-5.23 1.22-.54 2.53-1.02 3.59-1.4l1.32-.48c1.1-.4 2.23-.82 3.06-1.49.54-.43.78-1.66.67-2.43-.13-.96-.99-3.12-3.25-3.11-3.9.02-4.82 3.29-5.36 5.19l-4.33-1.73c1.47-3.52 5.26-5.94 9.49-5.94 1.45 0 2.89.29 4.17.84 3.5 1.5 5.05 3.83 4.87 7.88v8.84c0 1.27-.02 4.17.99 4.83.95.63 1.79-.02 1.79-.02v.81s-.52 1.26-2.17 1.26c-.79 0-1.6-.18-2.28-.5-.96-.47-2.03-1.26-2.64-2.33-1.78 2.07-4.21 3.26-7.29 3.26zm6.17-14.55c-.9.53-1.88.91-2.74 1.25-.36.14-.71.28-1.04.43-1.86.8-3.6 2.21-4.57 3.6-.81 1.15-.98 2.93-.4 4.32.54 1.28 1.88 2.08 3.49 2.08 2.65 0 4.67-1.36 5.38-3.33-.08-.7-.12-2.06-.12-2.88v-5.46zm198.76 11.39v2.71h5.27V92.39h-5.27v18.02c-1.01 2.24-3.12 3.1-5.45 3.1-1.91 0-4.46-1.07-4.46-5.29V92.39h-5.26v15.88c0 5.88 3.1 8.55 8.74 8.55 2.58 0 4.77-1.48 6.43-3.17zm-183.02 2.71V98.9c1.06-1.78 2.95-2.01 5.18-2.01 1.29 0 2.37.4 2.37.4v-5.01c-3.26-.05-5.58 1.38-7.55 3.5v-3.39h-5.26v23.97h5.26zm-33 0v-14.22c0-4.19-.7-6.61-2.42-8.35-1.52-1.53-3.87-1.8-6.61-1.8s-5.11 1.55-6.85 3.34V79.55h-5.26v36.79h5.26V98.66c1.03-2.55 3.17-3.38 6.07-3.38 1.42 0 2.57 1 3.3 1.79.75.82 1.24 2.07 1.24 5.55v13.72h5.26zm48.55 0V79.56h-5.27v36.79h5.27zm15.06.46c-7.61 0-12.72-4.66-12.72-12.45s5.11-12.4 12.72-12.4 12.72 4.64 12.72 12.4-5.23 12.45-12.72 12.45zm0-22.36c-4.82 0-7.34 5.27-7.34 9.91s2.52 9.96 7.34 9.96c2.78 0 4.47-2.14 5.4-3.45 1.23-1.73 1.94-4.1 1.94-6.51 0-4.64-2.52-9.91-7.34-9.91zm42.72 19.27-.77-1.01c-1.06.71-2.63 1.11-3.98 1.06-1.44-.05-2.12-.83-2.12-3.09V94.99c4.11.04 6.6.15 7.78.22l1.37.11-1.74-2.93h-7.42v-9.05l-5.26 4.76v4.28h-7.77v-9.04l-5.27 4.76v4.29h-4l-2.28 3.2s1.34-.14 1.72-.17c.38-.03 2.13-.14 4.56-.24v16.01c0 3.89 2.32 5.63 6.21 5.63 2.41 0 4.23-.99 5.91-3.1l-.78-1c-1.06.71-2.52 1.07-3.96 1.06-1.43 0-2.11-.83-2.11-3.09V95c1.23-.04 2.23-.06 3.19-.06l4.58-.02v16.26c0 3.89 2.33 5.64 6.22 5.64 2.42 0 4.24-1.01 5.92-3.09zm13.84 3.09c-7.42 0-12.41-4.8-12.41-12.8 0-7.32 5.2-12.05 12.36-12.05 5.91 0 10.2 3.41 10.66 9.34l.14.91h-17.74c-.02.93-.03 1.3-.03 1.71 0 5.61 3.08 9.67 8.04 9.67 4.26 0 6.42-1.63 7.78-2.97l1.03.95c-2.26 3.41-5.32 5.24-9.81 5.24zm5.26-17.1c-.72-4.27-3.57-5.32-5.21-5.32-3.44 0-5.38 2.18-6.35 5.32h11.56zm44.79 16.67V79.59h-5.26v36.79h5.26zm16.23.42c-2.31 0-4.4-.87-6.24-2.09v1.64h-5.26V79.56h5.26v14.65c1.79-1.21 3.97-2.16 6.11-2.16 7.09 0 12.04 4.73 12.04 12.34s-4.78 12.42-11.9 12.42zm-6.24-4.36c1.45.83 3.45 1.29 5.1 1.29 4.8 0 7.67-3.85 7.67-9.34s-2.85-9.26-7.62-9.26c-1.46 0-3.61.39-5.14 1.44v15.87zm44.27 4.01 5.26-.12V98.95c.92-1.83 2.91-2.05 5.15-2.05 2.09 0 4.54 1.3 4.54 1.3l-2.67-5.9c-2.93 0-5.29 1.63-7.02 3.49v-3.43l-5.26.13v23.96zm-64.48-.1V94.52h-4.93v21.83h4.93zm-2.47-23.64 2.73-4.16-2.72-4.18-2.71 4.17 2.71 4.17zm-11.57 23.65V82.47h.13c5.88 0 10.84.27 12.22.36l2.32.14-2.24-3.16-.33-.19h-30.54l-2.84 3.3 2.57-.1c6.3-.25 10.67-.32 13.45-.34v33.88h5.25zm103.51 10.86 15.06-33.28.74-1.59h-4.4l-7.46 17.12-7.02-17.13h-5.75s9.5 20.54 10.12 21.94c-2.5 5.2-5.71 10.76-6.24 11.65l-.76 1.28h5.7zm-290.87-9.82c7.34 0 14.45-3.69 18.02-9.68l-5.15-1.97c-2.38 4.25-5.98 7.68-10.11 8.44-.79.15-1.61.22-2.45.22-3.99 0-7.54-1.99-10.06-4.91-3.34-3.87-4.83-9.36-3.99-14.12.86-4.89 3.39-9.54 7.32-11.72 1.87-1.04 4.2-1.77 6.57-1.77 1.23 0 2.49.19 3.75.56 2.91.86 5.79 3.66 8.03 6.89l4.23-3.2c-4.14-4.99-9.84-7.06-15.96-7.06-4.87 0-9.59 1.11-13.29 4.18-4.12 3.43-6.77 8.49-7.11 13.55-.35 5.47 1.43 10.66 5.02 14.62 3.76 4.16 9.29 5.97 15.17 5.97z" style="fill:#fff;stroke-width:0"/></svg>