<svg xmlns="http://www.w3.org/2000/svg" viewBox="0 0 602.73 311.4"><path d="M315.77 127.52c-3.4.82-6.28 3.06-7.9 6.16-1.88 3.39-1.78 7.53.25 10.84 1.76 2.92 5.96 5.27 15.71 8.68 7.06 2.47 9.66 5.56 8.4 9.94-1.09 4.1-6.38 6.57-11.8 5.36-3.82-.82-5.88-2.6-9.07-7.79-.59-.93-1.05-1.01-3.44-.4-1.47.44-2.69.97-2.69 1.22s.97 2.03 2.1 3.85c3.74 6.57 11.54 9.95 19.11 8.28 8.53-1.38 12.43-5.52 12.43-13.31 0-6.98-2.86-9.41-16.8-14.44-6.64-2.4-9.07-4.46-9.07-7.71 0-4.46 5.33-7.38 10.92-5.92 3.23.81 5.46 2.56 6.8 5.27 1.09 2.27 1.68 2.43 5.04 1.62l1.72-.36-1.26-2.8c-2.27-5.42-7.69-8.98-13.73-9.05-2.26-.22-4.53-.03-6.72.57zm118.86 20.36c0 14.2.25 21.7.71 22.72 1.18 2.44 3.95 3.25 9.83 2.96 1.55-.04 1.76-.32 1.76-2.23s-.21-2.19-1.68-2.19a8.485 8.485 0 0 1-2.94-.65c-1.13-.61-1.22-1.54-1.22-21.26v-20.61h-6.47v21.26zM90.35 150.4v23.12h5.84l.13-19.19.17-19.27 4.79 15.34 6.05 19.23 1.22 3.94 2.39-.2 2.39-.16 11.93-38.14v19.19l.04 19.27h6.47V127.2l-4.87.16-4.91.2-5.38 17.12c-2.94 9.37-5.46 17.2-5.71 17.32-2.07-5.65-3.98-11.36-5.71-17.12l-5.46-17.32-4.7-.2-4.66-.16v23.2zm256.92-16.59v5.31h-5.17v4.99h5.17v13.35c0 12.49.08 13.38 1.26 14.48 1.51 1.3 5.54 2.11 8.4 1.7 1.81-.28 2.02-.53 2.02-2.39s-.21-2.11-1.68-2.11a8.485 8.485 0 0 1-2.94-.65c-1.18-.61-1.26-1.42-1.26-12.5v-11.88h5.88v-5h-5.88v-10.63h-5.8v5.32zm-199.33 5.52c-4.04 1.75-7.2 5.07-8.74 9.2-1.36 4.8-1.46 9.84-.29 14.69 2.31 6.9 7.31 10.42 14.62 10.38 9.37-.08 14.62-6.32 14.7-17.64.24-2.91-.26-5.84-1.43-8.52-2.99-7.21-11.35-10.82-18.9-8.16l.04.04zm9.03 5.1c4.12 2.03 6.3 10.83 4.37 17.24-2.65 8.72-11.42 9.9-15.58 2.15-1.93-3.65-1.89-11.36.04-15.34 2.35-4.54 6.89-6.24 11.17-4.06zm31.75-5.35c-2.65.38-5.05 1.76-6.72 3.85l-1.68 1.95v-5.76h-5.84v34.4h5.84v-9.17c0-5.03.34-10.34.71-11.89.99-3.86 4.03-6.87 7.9-7.83l3.02-.69v-2.72c0-1.5-.17-2.72-.42-2.72l-2.81.57zm14.74.4c-3.78 1.14-7.73 5.28-8.99 9.46-.63 2.68-.91 5.44-.84 8.19.08 6.74 2.27 11.32 7.01 14.36 2.69 1.78 3.65 2.03 7.14 2.03 3.28 0 4.58-.32 6.43-1.58l2.35-1.5v3.77c0 3.41-.21 3.98-2.02 5.6a11.346 11.346 0 0 1-4.2 2.19c-3.87.21-7.74-.35-11.38-1.66-1.05-.57-1.18-.28-1.18 2.19 0 2.72.04 2.8 2.44 3.41 4.9.88 9.92.88 14.83 0 1.36-.55 2.61-1.33 3.7-2.31 3.49-3.17 3.61-3.98 3.61-25.15v-19.31h-2.18c-1.81 0-2.27.24-2.6 1.62l-.42 1.71-1.51-1.38c-2.77-2.56-7.06-3.12-12.18-1.58v-.04zm8.74 4.71c1.04.58 2.03 1.26 2.94 2.03 1.34 1.18 1.43 1.7 1.43 9.65v8.4l-2.14 2.03c-4.28 4.14-10.29 3.24-13.02-1.87a24.37 24.37 0 0 1-.13-16.19c2.1-4.06 7.18-5.92 10.92-4.06zm27.3-5.11c-1.35.37-2.66.87-3.91 1.5-2.1 1.06-5.46 4.42-5.46 5.48 0 .32 1.05 1.05 2.35 1.62l2.31 1.14 1.3-1.75c4.07-5.44 13.4-4.46 13.65 1.42l.13 2.15-3.86.48c-11.13 1.38-17.18 5.76-17.18 12.58 0 7.5 6.51 11.76 14.91 9.82 1.81-.44 3.86-1.26 4.62-1.91 1.47-1.06 1.51-1.06 3.36.41 1.13.93 2.65 1.5 4.03 1.5 2.1 0 2.23-.12 2.23-2.15 0-1.3-.42-2.23-.97-2.48-.84-.28-.97-2.07-.97-10.95 0-12.74-.59-14.89-4.79-17.24a19.02 19.02 0 0 0-11.76-1.62zm10.71 20.6c0 3.82-.21 4.46-1.76 6.01-5.46 5.32-13.1 4.14-13.1-2.03 0-4.79 2.9-6.49 14.41-8.23.25 0 .42 1.9.42 4.26h.04zm26.33-20.28c-1.48.51-2.86 1.28-4.07 2.27l-1.55 1.38v-1.94c0-1.99-.08-1.99-3.23-1.99h-3.23v34.4h6.47v-25.56l2.94-2.03c1.68-1.05 4.12-2.03 5.46-2.23 2.1-.32 2.81-.08 4.16 1.22l1.68 1.62v26.98h5.84v-14.28c0-12.94-.13-14.36-1.3-16.19-2.35-3.65-8.4-5.35-13.15-3.65zm97.4-.32c-3.22.88-6.05 2.81-8.06 5.47l-1.09 1.87 2.31 1.09 2.35 1.06 1.81-1.87c1.72-2.06 4.32-3.24 7.06-3.2 3.95 0 6.85 2.56 6.3 5.68-.17 1.34-.67 1.5-5.29 2.19-11.63 1.75-17.64 7.83-15.25 15.42 1.55 5.11 6.8 7.91 12.85 7.02 2.64-.2 5.12-1.26 7.06-3.01 1.18-1.06 1.43-1.1 1.43-.24 0 1.46 2.52 2.96 5 2.96 2.02 0 2.1-.16 2.1-2.15 0-1.14-.42-2.44-.92-2.84-.8-.65-.97-2.76-.97-11.88 0-10.47-.08-11.2-1.43-13.15-1.07-1.33-2.4-2.44-3.91-3.25a20.69 20.69 0 0 0-11.38-1.22l.04.04zm10.83 20.81c0 5.2-.8 6.37-5.33 8.28-3.78 1.5-5.92 1.21-7.85-1.02-4.41-4.99.17-10.06 10.25-11.36l2.48-.4c.25 0 .42 2.03.42 4.5h.04zm26.88-20.69c-1.05.41-2.94 1.38-4.03 2.23l-2.14 1.5v-1.87c0-1.87-.08-1.95-2.94-1.95h-2.9v34.4h5.84v-24.74l1.81-1.62c3.99-3.66 8.82-4.67 11.13-2.44 1.26 1.21 1.26 2.11 1.26 15.01v13.79h6.55l-.17-14.32c-.21-13.38-.25-14.52-1.55-16.06-.85-1.09-1.84-2.05-2.94-2.88-1.93-1.46-7.31-1.95-9.95-1.06h.04zm48.18.04c-5.67 1.58-9.45 7.02-10.16 14.68-.49 5.13.76 10.28 3.57 14.6 3.57 4.3 10.21 6.17 17.14 4.79 3.3-.98 6.11-3.15 7.9-6.08.84-1.62.84-1.66-1.43-2.72l-2.27-1.06-2.39 2.48c-4.96 5.19-12.26 3.69-15.25-3.17-.52-1.26-.84-2.58-.97-3.94v-1.58h23.48l-.34-4.87c-.25-5.47-1.93-9.25-4.79-11.28a18.597 18.597 0 0 0-14.45-1.86h-.04zm10.08 5.64c2.04 1.72 3.31 4.13 3.57 6.73 0 1.22-.42 1.26-8.82 1.26h-8.82l.46-2.03c1.18-5.15 3.78-7.3 8.82-7.34 2.1 0 3.49.4 4.79 1.38zm12.6-5.28c0 .33 2.69 7.79 5.88 16.6 2.17 5.63 4.1 11.34 5.8 17.12-.3 1.38-.81 2.7-1.51 3.94-1.72 3.37-4.91 5.2-7.98 4.75-2.1-.28-2.18-.24-2.18 2.19v2.44h3.65c1.92.01 3.82-.31 5.63-.94 2.39-1.05 5.67-5.56 7.14-9.7 3.36-9.49 11.42-34.36 11.42-35.53 0-1.26-.25-1.38-2.73-1.22l-2.65.2-3.44 11.2-3.78 12.17c-.34.65-1.76-2.56-3.99-8.68-6.01-16.63-5.08-15.01-8.4-15.01-1.55 0-2.86.25-2.86.49z" style="fill:#fff;stroke-width:0"/></svg>