<svg id="LOGOS" xmlns="http://www.w3.org/2000/svg" viewBox="0 0 543.24 311.32"><defs><style>.cls-1{fill:#fff;stroke-width:0}</style></defs><path class="cls-1" d="M181.98 152.25h46.76c7.6 0 13.77 6.16 13.77 13.77 0 5.8-3.58 10.76-8.65 12.79l9.64 13.9h-26.61l-6.85-12.92h-6.01v12.92H182v-40.46zm33.11 8.57-11.04.03v9.6h11.06c2.66 0 4.82-2.15 4.82-4.81s-2.16-4.82-4.84-4.82m126.82 23h22.66v8.89h-45.54v-40.46h22.88v31.57zm-63.55 0h27.96v8.89h-51.26v-40.46h48.72v8.9h-25.42v6.89h25.42v8.89h-25.42v6.89zm115.66 0h22.66v8.89h-45.54v-40.46h22.88v31.57z"/><path class="cls-1" d="M91.74 115.71H437.6c7.81 0 14.14 6.33 14.14 14.14s-6.33 14.14-14.14 14.14H130.29v48.72H91.74v-77zm303.28 9.33H130.29v9.43h264.73c2.6 0 4.71-2.11 4.71-4.71s-2.11-4.71-4.71-4.71"/><path class="cls-1" d="M145.12 152.25h22.03v40.46h-22.03zm277.92 0h22.03v40.46h-22.03z"/></svg>