<svg id="LOGOS" xmlns="http://www.w3.org/2000/svg" viewBox="0 0 604.46 311.4"><defs><style>.cls-1{fill:#fff;stroke-width:0}</style></defs><path class="cls-1" d="M361.46 132.71c3.65 0 5.4 2.41 5.4 5.46s-1.76 5.26-5.4 5.26-5.46-2.34-5.46-5.26 1.82-5.46 5.46-5.46zm-4.62 13.01v32.33h9.17v-32.33h-9.17zm133.25 32.34v-26.22l-1.88-6.11h8.78l1.88 5.53c1.56-3.97 4.75-6.17 9.37-6.17 1.37 0 2.67.26 3.65.59v8.85c-1.04-.32-2.21-.52-3.52-.52-6.37 0-9.17 4.43-9.17 10.41v13.66h-9.11v-.03zm-67.14 0H411.7l-9.83-32.34h10.15l6.17 23.61 5.61-18.34-1.63-5.27h9.69l6.57 23.68 6.05-23.68h9.57l-9.96 32.34H432.9l-4.88-15.42-5.07 15.42zm-96.42 0-15.09-44.11h10.66l10.15 33.95 10.67-33.95h10.02l-15.16 44.11h-11.25zm149.94-19.27H463.2c.59-4.1 2.67-6.5 7.16-6.5 4.1 0 6.05 2.99 6.11 6.5zm9.23 2.61c0-9.63-5.92-16.33-15.03-16.33-10.48 0-16.72 7.81-16.72 16.98s6.17 16.59 16.27 16.59c6.83 0 11.19-2.28 14.25-6.17l-5.99-5.01c-1.82 2.34-4.29 3.77-7.61 3.77-4.49 0-7.08-2.61-7.67-6.7h22.38c.06-1.04.13-2.02.13-3.12zm-93.23-2.61H379.2c.59-4.1 2.73-6.5 7.22-6.5 4.03 0 5.99 2.99 6.05 6.5zm9.17 2.61c0-9.63-5.85-16.33-15.03-16.33-10.34 0-16.59 7.81-16.59 16.98s6.05 16.59 16.27 16.59c6.83 0 11.12-2.28 14.25-6.17l-5.99-5.01c-1.88 2.34-4.29 3.77-7.61 3.77-4.49 0-7.16-2.61-7.74-6.7h22.31c.13-1.04.13-2.02.13-3.12zM171.95 178v-35.71h-14.83v-8.39h39.16v8.39h-14.76V178h-9.57z"/><path class="cls-1" d="M198.63 158.74c.52-4.1 2.67-6.5 7.09-6.5 4.17 0 6.05 2.99 6.17 6.5h-13.27zm22.5 2.61c0-9.63-6.11-16.33-15.22-16.33-10.41 0-16.59 7.81-16.59 16.98s6.11 16.59 16.33 16.59c6.83 0 11.19-2.28 14.18-6.17l-5.99-5.01c-1.76 2.34-4.29 3.77-7.67 3.77-4.43 0-7.03-2.61-7.55-6.7h22.31c.06-1.04.2-2.02.2-3.12zm20.82 9.69c-5.2 0-7.94-4.16-7.94-9.31 0-4.62 2.67-9.1 7.94-9.1s8 4.55 8 9.1c0 5.14-2.28 9.31-8 9.31zm16.19.78v-26.14h-8v3.58h-.06c-2.28-2.47-5.53-4.23-9.89-4.23-9.31 0-15.68 7.22-15.68 16.91s6.37 16.65 15.68 16.65c4.35 0 7.61-1.43 9.89-3.9h.06l1.04 3.32h8.98l-2.02-6.17zm21.93-18.48c-3.58 0-5.53 2.79-5.53 6.9V178h-9.17v-26.22l-1.95-6.11h8.98l1.56 5.01c1.5-3.19 4.49-5.66 9.37-5.66 3.9 0 6.63 1.88 8.19 4.94 2.15-2.86 5.46-4.94 10.34-4.94 7.67 0 10.54 5.72 10.54 13.66V178h-9.17v-18.15c0-4.35-.97-6.5-4.29-6.5s-5.46 2.79-5.46 6.9v17.83h-9.1v-18.21c0-4.35-1.04-6.5-4.29-6.5zm-160.03 25.24c-12.5 0-22.63-10.13-22.63-22.63s10.13-22.62 22.63-22.62 22.63 10.13 22.63 22.63-10.13 22.63-22.63 22.63zm19.81-50.78h-39.63a8.33 8.33 0 0 0-8.33 8.33v39.63c0 4.6 3.73 8.33 8.33 8.33h39.63c4.6 0 8.33-3.73 8.33-8.33v-39.63c0-4.6-3.73-8.33-8.33-8.33z"/><path class="cls-1" d="m139.19 155.94-14.59-7.98 1.6 5.03h-12.33l1.6-5.03-14.6 7.99 14.6 7.98-1.6-5.04h12.33l-1.6 5.04 14.59-7.99z"/></svg>